<?xml version="1.0" standalone="no"?>
<svg version="1.0" xmlns="http://www.w3.org/2000/svg"
 width="2048.000000pt" height="2048.000000pt" viewBox="0 0 2048.000000 2048.000000"
 preserveAspectRatio="xMidYMid meet">

<g transform="translate(0.000000,2048.000000) scale(0.100000,-0.100000)"
fill="#fff" stroke="none">
<path d="M9037 9250 c-156 -11 -260 -38 -348 -90 -175 -104 -279 -276 -279
-460 1 -132 43 -232 136 -326 97 -98 222 -157 399 -190 39 -7 37 -7 -50 -25
-180 -37 -303 -92 -401 -182 -115 -105 -143 -201 -164 -552 -12 -198 -27 -287
-61 -364 -37 -84 -90 -121 -171 -121 -43 0 -139 38 -153 59 -5 9 -10 9 -21 0
-26 -22 -14 -38 53 -71 68 -33 68 -33 218 -33 132 0 157 3 206 23 192 77 239
185 274 637 23 291 49 381 138 473 56 58 118 88 213 104 69 11 79 16 82 35 3
19 -4 23 -55 33 -81 17 -123 41 -176 100 -83 92 -112 214 -104 429 9 262 89
395 271 454 76 24 317 34 453 19 136 -16 240 -68 345 -173 75 -75 98 -91 98
-70 0 24 195 241 217 241 7 0 13 11 13 25 l0 25 -407 0 c-225 0 -451 2 -503 4
-52 3 -153 0 -223 -4z"/>
<path d="M10568 9243 c-259 -3 -268 -4 -268 -23 0 -13 7 -20 20 -20 20 0 172
-143 238 -225 19 -23 35 -35 38 -28 13 30 141 178 176 203 53 38 105 48 304
56 346 14 484 -39 570 -221 39 -83 54 -164 54 -300 0 -186 -33 -302 -108 -386
-54 -60 -99 -84 -186 -101 -57 -11 -66 -15 -66 -34 0 -20 7 -23 73 -29 144
-14 243 -77 305 -193 44 -82 59 -156 77 -392 9 -113 18 -221 21 -240 32 -206
93 -317 206 -372 78 -38 161 -51 290 -46 88 3 124 9 163 27 68 30 87 49 75 72
-10 17 -12 17 -47 -6 -47 -33 -107 -48 -162 -42 -75 8 -123 59 -161 170 -21
62 -30 137 -50 425 -12 167 -37 283 -75 347 -74 127 -277 239 -495 276 -83 13
-83 14 54 44 110 24 227 86 302 160 256 251 159 661 -194 823 -109 50 -150 54
-532 56 -195 1 -475 1 -622 -1z"/>
<path d="M9824 7203 c-50 -99 -143 -195 -237 -241 -37 -19 -67 -38 -67 -42 0
-21 700 -14 707 6 2 6 -27 26 -64 44 -89 44 -223 175 -259 255 -14 30 -29 55
-33 55 -4 0 -25 -35 -47 -77z"/>
<path d="M10600 7265 c0 -65 -154 -231 -263 -285 -37 -18 -66 -38 -64 -44 7
-20 707 -27 707 -7 0 4 -28 22 -63 40 -112 57 -236 187 -269 283 -11 30 -48
40 -48 13z"/>
<path d="M3064 5171 c-163 -19 -256 -55 -361 -140 -143 -116 -211 -282 -186
-456 15 -103 53 -177 132 -255 98 -97 243 -164 396 -182 35 -5 51 1 -128 -41
-134 -32 -240 -84 -323 -160 -112 -102 -135 -178 -159 -524 -17 -236 -30 -308
-73 -387 -37 -67 -69 -89 -139 -94 -49 -3 -67 1 -118 27 -51 26 -62 28 -74 17
-11 -12 -7 -18 28 -41 54 -36 136 -55 243 -55 203 0 320 58 386 192 41 85 59
178 77 419 25 310 49 400 135 493 86 94 179 115 488 116 l162 0 0 -580 0 -580
-175 0 c-168 0 -175 -1 -175 -20 0 -20 7 -20 510 -20 503 0 510 0 510 20 0 19
-7 20 -175 20 l-175 0 0 1095 0 1095 175 0 c168 0 175 1 175 20 0 20 -7 20
-267 20 -148 0 -392 2 -543 4 -151 3 -307 1 -346 -3z m404 -38 l82 -6 0 -495
0 -494 -202 4 c-253 6 -287 15 -368 96 -93 93 -127 219 -117 437 6 140 28 223
82 303 37 55 111 110 175 131 75 24 221 34 348 24z"/>
<path d="M5445 5148 c-2 -7 -189 -503 -415 -1102 -225 -598 -410 -1090 -410
-1092 0 -2 -61 -4 -135 -4 -128 0 -135 -1 -135 -20 0 -20 7 -20 330 -20 323 0
330 0 330 20 0 19 -7 20 -171 20 l-170 0 7 23 c4 12 76 204 160 427 l152 405
359 3 358 2 162 -427 161 -428 -169 -3 c-161 -2 -169 -3 -169 -22 0 -20 9 -20
470 -20 463 0 470 0 470 20 0 19 -7 20 -134 20 l-134 0 -16 43 c-9 23 -198
519 -419 1102 l-403 1060 -37 3 c-24 2 -39 -1 -42 -10z m74 -850 c88 -235 161
-432 161 -438 0 -7 -110 -10 -336 -10 -265 0 -335 3 -331 13 2 6 78 207 168
445 89 237 166 429 170 425 3 -5 79 -200 168 -435z"/>
<path d="M12651 5150 c-394 -55 -773 -388 -906 -797 -60 -181 -69 -402 -26
-598 98 -450 447 -801 871 -876 83 -14 257 -14 337 0 252 46 502 209 668 435
357 486 302 1136 -129 1544 -230 217 -543 329 -815 292z m337 -65 c174 -51
324 -206 401 -415 107 -293 120 -909 25 -1263 -28 -106 -98 -239 -161 -308
-72 -77 -138 -121 -240 -156 -74 -26 -88 -27 -253 -27 -165 0 -179 1 -254 27
-239 84 -376 281 -431 622 -49 304 -36 761 30 1013 86 325 283 508 573 530
105 8 235 -2 310 -23z"/>
<path d="M15045 5148 c-2 -7 -189 -503 -415 -1102 -225 -598 -410 -1090 -410
-1092 0 -2 -61 -4 -135 -4 -128 0 -135 -1 -135 -20 0 -20 7 -20 330 -20 323 0
330 0 330 20 0 19 -7 20 -171 20 l-170 0 7 23 c4 12 76 204 160 427 l152 405
359 3 358 2 162 -427 161 -428 -169 -3 c-161 -2 -169 -3 -169 -22 0 -20 9 -20
470 -20 463 0 470 0 470 20 0 19 -7 20 -134 20 l-134 0 -16 43 c-9 23 -198
519 -419 1102 l-403 1060 -37 3 c-24 2 -39 -1 -42 -10z m74 -850 c88 -235 161
-432 161 -438 0 -7 -110 -10 -336 -10 -265 0 -335 3 -331 13 2 6 78 207 168
445 89 237 166 429 170 425 3 -5 79 -200 168 -435z"/>
<path d="M16663 5103 c-334 -3 -343 -4 -343 -23 0 -19 7 -20 170 -20 l170 0 0
-1055 0 -1055 -170 0 c-163 0 -170 -1 -170 -20 0 -20 7 -20 495 -20 488 0 495
0 495 20 0 19 -7 20 -170 20 l-170 0 2 558 3 557 120 3 c189 4 343 -11 407
-40 94 -44 167 -142 197 -260 6 -26 20 -153 31 -281 28 -331 58 -431 153 -512
73 -63 132 -79 292 -79 139 -1 141 -1 208 32 60 30 66 35 57 53 -13 24 -12 24
-56 -6 -66 -45 -174 -47 -221 -4 -69 65 -97 172 -113 429 -21 334 -50 428
-163 522 -100 83 -250 145 -397 164 -63 8 -56 13 63 39 114 25 209 76 288 154
76 76 103 123 125 218 27 114 1 248 -67 355 -68 105 -215 204 -351 234 -73 17
-356 22 -885 17z m659 -47 c216 -39 318 -192 318 -474 0 -171 -35 -295 -103
-369 -80 -86 -141 -103 -384 -103 l-183 0 0 474 0 475 28 4 c63 10 253 5 324
-7z"/>
<path d="M6990 5080 c0 -19 7 -20 175 -20 l176 0 -4 -977 c-3 -727 -7 -990
-16 -1024 -15 -56 -63 -117 -107 -135 -83 -35 -202 -4 -223 57 -17 48 -14 83
15 167 44 128 32 191 -45 236 -44 26 -136 24 -190 -3 -60 -31 -94 -95 -94
-179 -1 -85 25 -145 90 -209 88 -87 196 -124 368 -124 260 0 406 110 482 366
16 55 18 131 21 943 l3 882 169 0 c163 0 170 1 170 20 0 20 -7 20 -495 20
-488 0 -495 0 -495 -20z"/>
<path d="M8020 5080 c0 -18 8 -20 141 -22 l141 -3 418 -1095 418 -1095 38 0
39 0 414 1098 414 1097 139 0 c131 0 138 1 138 20 0 20 -7 20 -330 20 -323 0
-330 0 -330 -20 0 -19 7 -20 166 -20 154 0 166 -1 159 -17 -3 -10 -152 -404
-331 -876 -178 -472 -328 -865 -332 -873 -5 -10 -123 285 -348 873 l-340 888
168 3 c160 2 168 3 168 22 0 20 -9 20 -475 20 -466 0 -475 0 -475 -20z"/>
<path d="M10380 5080 c0 -19 7 -20 170 -20 l170 0 0 -1055 0 -1055 -170 0
c-163 0 -170 -1 -170 -20 0 -20 7 -20 495 -20 488 0 495 0 495 20 0 19 -7 20
-170 20 l-170 0 0 1055 0 1055 170 0 c163 0 170 1 170 20 0 20 -7 20 -495 20
-488 0 -495 0 -495 -20z"/>
</g>
</svg>
