<?xml version="1.0" encoding="UTF-8"?>
<svg id="a" xmlns="http://www.w3.org/2000/svg" viewBox="0 0 347.65 338.8">
<defs><style>.b{fill:#fff;fill-rule:evenodd;stroke-width:0px;}</style></defs><path class="b" d="M78.83,0H15.63L.23,232c-1.89,27.65,7.79,54.83,26.7,75.08s45.39,31.73,73.09,31.72h147.6c27.67,0,54.1-11.46,73.02-31.66,18.91-20.2,28.61-47.33,26.78-74.94L331.83,0H78.83ZM78.83,20h-44.4l-14.2,213.4c-1.49,22.1,6.24,43.83,21.36,60.02,15.13,16.18,36.28,25.38,58.43,25.38h147.6c22.18.05,43.4-9.11,58.56-25.31,15.17-16.19,22.93-37.96,21.44-60.09l-14.4-213.4h-44.4v12.6c0,52.47-42.53,95-95,95s-95-42.53-95-95v-12.6ZM248.83,20H98.83v12.6c0,41.42,33.58,75,75,75s75-33.58,75-75v-12.6Z"/></svg>