<svg xmlns="http://www.w3.org/2000/svg" xmlns:xlink="http://www.w3.org/1999/xlink" width="80" zoomAndPan="magnify" viewBox="0 0 600 599.999999" height="800" preserveAspectRatio="xMidYMid meet" version="1.0">
<!-- <rect x="-60" width="720" fill="#ffffff" y="-60" height="719.999999" fill-opacity="1"/>
<rect x="-60" width="720" fill="#ffffff" y="-60" height="719.999999" fill-opacity="1"/> -->
<path fill="#ffffff" d="M 228.75 172.949219 L 181.351562 172.949219 L 169.800781 346.949219 C 168.386719 367.683594 175.640625 388.074219 189.828125 403.257812 C 204.015625 418.441406 223.867188 427.054688 244.648438 427.050781 L 355.351562 427.050781 C 376.101562 427.054688 395.929688 418.457031 410.113281 403.308594 C 424.296875 388.15625 431.570312 367.808594 430.199219 347.101562 L 418.5 172.949219 Z M 228.75 187.949219 L 195.449219 187.949219 L 184.800781 348 C 183.679688 364.578125 189.480469 380.875 200.824219 393.015625 C 212.167969 405.152344 228.035156 412.046875 244.648438 412.050781 L 355.351562 412.050781 C 371.988281 412.089844 387.898438 405.214844 399.273438 393.070312 C 410.652344 380.925781 416.472656 364.601562 415.351562 348 L 404.550781 187.949219 L 371.25 187.949219 L 371.25 197.398438 C 371.25 236.75 339.351562 268.648438 300 268.648438 C 260.648438 268.648438 228.75 236.75 228.75 197.398438 Z M 356.25 187.949219 L 243.75 187.949219 L 243.75 197.398438 C 243.75 228.464844 268.933594 253.648438 300 253.648438 C 331.066406 253.648438 356.25 228.464844 356.25 197.398438 Z M 356.25 187.949219 " fill-opacity="1" fill-rule="evenodd"/>
</svg>