<?xml version="1.0" encoding="UTF-8"?><svg id="a" xmlns="http://www.w3.org/2000/svg" viewBox="0 0 464.21 236.42"><defs><style>.b{fill:#fff;stroke-width:0px;}</style></defs><path class="b" d="M112.57.52c-15.6,1.1-26,3.8-34.8,9-17.5,10.4-27.9,27.6-27.9,46,.1,13.2,4.3,23.2,13.6,32.6,9.7,9.8,22.2,15.7,39.9,19,3.9.7,3.7.7-5,2.5-18,3.7-30.3,9.2-40.1,18.2-11.5,10.5-14.3,20.1-16.4,55.2-1.2,19.8-2.7,28.7-6.1,36.4-3.7,8.4-9,12.1-17.1,12.1-4.3,0-13.9-3.8-15.3-5.9-.5-.9-1-.9-2.1,0-2.6,2.2-1.4,3.8,5.3,7.1q6.8,3.3,21.8,3.3c13.2,0,15.7-.3,20.6-2.3,19.2-7.7,23.9-18.5,27.4-63.7,2.3-29.1,4.9-38.1,13.8-47.3,5.6-5.8,11.8-8.8,21.3-10.4,6.9-1.1,7.9-1.6,8.2-3.5s-.4-2.3-5.5-3.3c-8.1-1.7-12.3-4.1-17.6-10-8.3-9.2-11.2-21.4-10.4-42.9.9-26.2,8.9-39.5,27.1-45.4,7.6-2.4,31.7-3.4,45.3-1.9,13.6,1.6,24,6.8,34.5,17.3,7.5,7.5,9.8,9.1,9.8,7,0-2.4,19.5-24.1,21.7-24.1.7,0,1.3-1.1,1.3-2.5V.52h-40.7c-22.5,0-45.1-.2-50.3-.4-5.2-.3-15.3,0-22.3.4Z"/><path class="b" d="M265.67,1.22c-25.9.3-26.8.4-26.8,2.3,0,1.3.7,2,2,2,2,0,17.2,14.3,23.8,22.5,1.9,2.3,3.5,3.5,3.8,2.8,1.3-3,14.1-17.8,17.6-20.3,5.3-3.8,10.5-4.8,30.4-5.6,34.6-1.4,48.4,3.9,57,22.1,3.9,8.3,5.4,16.4,5.4,30,0,18.6-3.3,30.2-10.8,38.6-5.4,6-9.9,8.4-18.6,10.1-5.7,1.1-6.6,1.5-6.6,3.4,0,2,.7,2.3,7.3,2.9,14.4,1.4,24.3,7.7,30.5,19.3,4.4,8.2,5.9,15.6,7.7,39.2.9,11.3,1.8,22.1,2.1,24,3.2,20.6,9.3,31.7,20.6,37.2,7.8,3.8,16.1,5.1,29,4.6,8.8-.3,12.4-.9,16.3-2.7,6.8-3,8.7-4.9,7.5-7.2-1-1.7-1.2-1.7-4.7.6-4.7,3.3-10.7,4.8-16.2,4.2-7.5-.8-12.3-5.9-16.1-17-2.1-6.2-3-13.7-5-42.5-1.2-16.7-3.7-28.3-7.5-34.7-7.4-12.7-27.7-23.9-49.5-27.6-8.3-1.3-8.3-1.4,5.4-4.4,11-2.4,22.7-8.6,30.2-16,25.6-25.1,15.9-66.1-19.4-82.3-10.9-5-15-5.4-53.2-5.6-19.5-.1-47.5-.1-62.2.1Z"/><path class="b" d="M191.27,205.22c-5,9.9-14.3,19.5-23.7,24.1-3.7,1.9-6.7,3.8-6.7,4.2,0,2.1,70,1.4,70.7-.6.2-.6-2.7-2.6-6.4-4.4-8.9-4.4-22.3-17.5-25.9-25.5-1.4-3-2.9-5.5-3.3-5.5s-2.5,3.5-4.7,7.7Z"/><path class="b" d="M268.87,199.02c0,6.5-15.4,23.1-26.3,28.5-3.7,1.8-6.6,3.8-6.4,4.4.7,2,70.7,2.7,70.7.7,0-.4-2.8-2.2-6.3-4-11.2-5.7-23.6-18.7-26.9-28.3-1.1-3-4.8-4-4.8-1.3Z"/></svg>