<?xml version="1.0" encoding="UTF-8"?><svg id="a" xmlns="http://www.w3.org/2000/svg" viewBox="0 0 1641.78 231.04"><defs><style>.b{fill:#fff;stroke-width:0px;}</style></defs><path class="b" d="M103.84.44c-16.3,1.9-25.6,5.5-36.1,14-14.3,11.6-21.1,28.2-18.6,45.6,1.5,10.3,5.3,17.7,13.2,25.5,9.8,9.7,24.3,16.4,39.6,18.2,3.5.5,5.1-.1-12.8,4.1-13.4,3.2-24,8.4-32.3,16-11.2,10.2-13.5,17.8-15.9,52.4-1.7,23.6-3,30.8-7.3,38.7-3.7,6.7-6.9,8.9-13.9,9.4-4.9.3-6.7-.1-11.8-2.7s-6.2-2.8-7.4-1.7c-1.1,1.2-.7,1.8,2.8,4.1,5.4,3.6,13.6,5.5,24.3,5.5,20.3,0,32-5.8,38.6-19.2,4.1-8.5,5.9-17.8,7.7-41.9,2.5-31,4.9-40,13.5-49.3,8.6-9.4,17.9-11.5,48.8-11.6h16.2v116h-17.5c-16.8,0-17.5.1-17.5,2,0,2,.7,2,51,2s51,0,51-2-.7-2-17.5-2h-17.5V4.54h17.5c16.8,0,17.5-.1,17.5-2,0-2-.7-2-26.7-2-14.8,0-39.2-.2-54.3-.4-15.1-.3-30.7-.1-34.6.3ZM144.24,4.24l8.2.6v98.9l-20.2-.4c-25.3-.6-28.7-1.5-36.8-9.6-9.3-9.3-12.7-21.9-11.7-43.7.6-14,2.8-22.3,8.2-30.3,3.7-5.5,11.1-11,17.5-13.1,7.5-2.4,22.1-3.4,34.8-2.4Z"/><path class="b" d="M341.94,2.74c-.2.7-18.9,50.3-41.5,110.2-22.5,59.8-41,109-41,109.2s-6.1.4-13.5.4c-12.8,0-13.5.1-13.5,2,0,2,.7,2,33,2s33,0,33-2-.7-2-17.1-2h-17l.7-2.3c.4-1.2,7.6-20.4,16-42.7l15.2-40.5,35.9-.3,35.8-.2,16.2,42.7,16.1,42.8-16.9.3c-16.1.2-16.9.3-16.9,2.2,0,2,.9,2,47,2s47,0,47-2-.7-2-13.4-2h-13.4l-1.6-4.3c-.9-2.3-19.8-51.9-41.9-110.2L349.84,2.04l-3.7-.3c-2.4-.2-3.9.1-4.2,1ZM349.34,87.74c8.8,23.5,16.1,43.2,16.1,43.8,0,.7-11,1-33.6,1-26.5,0-33.5-.3-33.1-1.3.2-.6,7.8-20.7,16.8-44.5,8.9-23.7,16.6-42.9,17-42.5.3.5,7.9,20,16.8,43.5Z"/><path class="b" d="M1062.54,2.54c-39.4,5.5-77.3,38.8-90.6,79.7-6,18.1-6.9,40.2-2.6,59.8,9.8,45,44.7,80.1,87.1,87.6,8.3,1.4,25.7,1.4,33.7,0,25.2-4.6,50.2-20.9,66.8-43.5,35.7-48.6,30.2-113.6-12.9-154.4-23-21.7-54.3-32.9-81.5-29.2ZM1096.24,9.04c17.4,5.1,32.4,20.6,40.1,41.5,10.7,29.3,12,90.9,2.5,126.3-2.8,10.6-9.8,23.9-16.1,30.8-7.2,7.7-13.8,12.1-24,15.6-7.4,2.6-8.8,2.7-25.3,2.7s-17.9-.1-25.4-2.7c-23.9-8.4-37.6-28.1-43.1-62.2-4.9-30.4-3.6-76.1,3-101.3,8.6-32.5,28.3-50.8,57.3-53,10.5-.8,23.5.2,31,2.3Z"/><path class="b" d="M1301.94,2.74c-.2.7-18.9,50.3-41.5,110.2-22.5,59.8-41,109-41,109.2s-6.1.4-13.5.4c-12.8,0-13.5.1-13.5,2,0,2,.7,2,33,2s33,0,33-2-.7-2-17.1-2h-17l.7-2.3c.4-1.2,7.6-20.4,16-42.7l15.2-40.5,35.9-.3,35.8-.2,16.2,42.7,16.1,42.8-16.9.3c-16.1.2-16.9.3-16.9,2.2,0,2,.9,2,47,2s47,0,47-2-.7-2-13.4-2h-13.4l-1.6-4.3c-.9-2.3-19.8-51.9-41.9-110.2l-40.3-106-3.7-.3c-2.4-.2-3.9.1-4.2,1ZM1309.34,87.74c8.8,23.5,16.1,43.2,16.1,43.8,0,.7-11,1-33.6,1-26.5,0-33.5-.3-33.1-1.3.2-.6,7.8-20.7,16.8-44.5,8.9-23.7,16.6-42.9,17-42.5.3.5,7.9,20,16.8,43.5Z"/><path class="b" d="M1463.74,7.24c-33.4.3-34.3.4-34.3,2.3s.7,2,17,2h17v211h-17c-16.3,0-17,.1-17,2,0,2,.7,2,49.5,2s49.5,0,49.5-2-.7-2-17-2h-17l.2-55.8.3-55.7,12-.3c18.9-.4,34.3,1.1,40.7,4,9.4,4.4,16.7,14.2,19.7,26,.6,2.6,2,15.3,3.1,28.1,2.8,33.1,5.8,43.1,15.3,51.2,7.3,6.3,13.2,7.9,29.2,7.9,13.9.1,14.1.1,20.8-3.2,6-3,6.6-3.5,5.7-5.3-1.3-2.4-1.2-2.4-5.6.6-6.6,4.5-17.4,4.7-22.1.4-6.9-6.5-9.7-17.2-11.3-42.9-2.1-33.4-5-42.8-16.3-52.2-10-8.3-25-14.5-39.7-16.4-6.3-.8-5.6-1.3,6.3-3.9,11.4-2.5,20.9-7.6,28.8-15.4,7.6-7.6,10.3-12.3,12.5-21.8,2.7-11.4.1-24.8-6.7-35.5-6.8-10.5-21.5-20.4-35.1-23.4-7.3-1.7-35.6-2.2-88.5-1.7ZM1529.64,11.94c21.6,3.9,31.8,19.2,31.8,47.4,0,17.1-3.5,29.5-10.3,36.9-8,8.6-14.1,10.3-38.4,10.3h-18.3V11.64l2.8-.4c6.3-1,25.3-.5,32.4.7Z"/><path class="b" d="M496.44,9.54c0,1.9.7,2,17.5,2h17.6l-.4,97.7c-.3,72.7-.7,99-1.6,102.4-1.5,5.6-6.3,11.7-10.7,13.5-8.3,3.5-20.2.4-22.3-5.7-1.7-4.8-1.4-8.3,1.5-16.7,4.4-12.8,3.2-19.1-4.5-23.6-4.4-2.6-13.6-2.4-19,.3-6,3.1-9.4,9.5-9.4,17.9-.1,8.5,2.5,14.5,9,20.9,8.8,8.7,19.6,12.4,36.8,12.4,26,0,40.6-11,48.2-36.6,1.6-5.5,1.8-13.1,2.1-94.3l.3-88.2h16.9c16.3,0,17-.1,17-2,0-2-.7-2-49.5-2s-49.5,0-49.5,2Z"/><path class="b" d="M599.44,9.54c0,1.8.8,2,14.1,2.2l14.1.3,41.8,109.5,41.8,109.5h7.7l41.4-109.8,41.4-109.7h13.9c13.1,0,13.8-.1,13.8-2,0-2-.7-2-33-2s-33,0-33,2,.7,2,16.6,2,16.6.1,15.9,1.7c-.3,1-15.2,40.4-33.1,87.6-17.8,47.2-32.8,86.5-33.2,87.3-.5,1-12.3-28.5-34.8-87.3l-34-88.8,16.8-.3c16-.2,16.8-.3,16.8-2.2,0-2-.9-2-47.5-2s-47.5,0-47.5,2Z"/><path class="b" d="M835.44,9.54c0,1.9.7,2,17,2h17v211h-17c-16.3,0-17,.1-17,2,0,2,.7,2,49.5,2s49.5,0,49.5-2-.7-2-17-2h-17V11.54h17c16.3,0,17-.1,17-2,0-2-.7-2-49.5-2s-49.5,0-49.5,2Z"/></svg>